# xmcd
#
# Track frame offsets:
#	150
#	20092
#	39827
#	60637
#	77775
#	98067
#	114135
#	133537
#	151765
#	165860
#	185827
#	205645
#	226527
#	243712
#	263845
#	279870
#	299060
#	317292
#
# Disc length: 4412
#
# Revision: 1
# Processed by: cddbd v1.5.2PL0 Copyright (c) Steve Scherf et al.
# Submitted via: kJams Pro (development) 1.0patch45.4
#
DISCID=e1113a12
DTITLE=Various Artist - NSC 3003
DYEAR=1990
DGENRE=Country
TTITLE0=Dixie Ghicks - Goodbye Earl
TTITLE1=Clay Walker - The Chain Of Love
TTITLE2=Alan Jackson - The Blues Man
TTITLE3=Colin Raye - Couldn't Last A Moment
TTITLE4=Reba McEntire - I'll Be
TTITLE5=Chad Brock - Yes
TTITLE6=Keith Urban - Your Everything
TTITLE7=Clay Davidson - Unconditional
TTITLE8=Joe Diffie - It's Always Something
TTITLE9=Dixie Chicks - Vocal - Goodbye Earl
TTITLE10=Glay Walker - Vocal - The Chain Of Love
TTITLE11=Alan Jackson - Vocals - The Blues Man
TTITLE12=Colin Raye - Vocal - Couldn't Last A Moment
TTITLE13=Reba McEntire - I'll Be
TTITLE14=Chad Brock - Yes
TTITLE15=Keith Urban - Your Everything
TTITLE16=Clay Davidson - Unconditional
TTITLE17=Joe Diffie - It's Always Something
EXTD=
EXTT0=
EXTT1=
EXTT2=
EXTT3=
EXTT4=
EXTT5=
EXTT6=
EXTT7=
EXTT8=
EXTT9=
EXTT10=
EXTT11=
EXTT12=
EXTT13=
EXTT14=
EXTT15=
EXTT16=
EXTT17=
PLAYORDER=
